{"title":"São Paulo em Hi-Fi (2013)","uid":15719839,"size":2513529777,"categoryP":"video","categoryS":"hd___movies","magnet":"?xt=urn:btih:b24e8b5357fa67e619ae2c0fb5e3816e9355966c&amp;dn=S%26atilde%3Bo+Paulo+em+Hi-Fi+%282013%29&amp;tr=udp%3A%2F%2Ftracker.leechers-paradise.org%3A6969&amp;tr=udp%3A%2F%2Fzer0day.ch%3A1337&amp;tr=udp%3A%2F%2Fopen.demonii.com%3A1337&amp;tr=udp%3A%2F%2Ftracker.coppersurfer.tk%3A6969&amp;tr=udp%3A%2F%2Fexodus.desync.com%3A6969","seeders":3,"leechers":4,"uploader":"melvim","files":3,"time":1472666196,"description":"São Paulo em Hi-Fi (2016) - Sao Paulo em Hi-Fi (2016)\r\n\r\n\r\n\r\nVídeo capturado do Canal Brasil. Apoiem os realizadores deste documentário através de sua página no\n\r\n\r\n\r\nMinha taxa de upload não é alta e eu não fico com o computador ligado 24hr por dia, então tenham paciência e continuem compartilhando o torrent depois de terminado o download para que ele não morra.\r\n\r\n\r\n\r\nSinopse:\r\n\r\nExibido no festival Mix Brasil em 2013, o documentário São Paulo em Hi-Fi entra, finalmente, em cartaz. O CineSesc exibe em sessões diárias o precioso registro do diretor Lufe Steffen sobre a noite gay paulistana. Passando de raspão pelos anos 60, o filme centra foco e faz uma apurada radiografia de boates lendárias das décadas de 70 e 80, a exemplo de Medieval, HS, Corintho e Nostromondo. Frequentadores da noite e empresários pioneiros, como Celso Curi e Elisa Mascaro, dão depoimentos.\r\n\r\nFormat                      : MPEG-4\r\nFormat profile              : Base Media\r\nCodec ID                    : isom (isom/iso2/avc1/mp41)\r\nFile size                   : 2.34 GiB\r\nDuration                    : 1h 41mn\r\nOverall bit rate            : 3 311 Kbps\r\nWriting application         : Lavf57.25.100\r\n\r\nVideo\r\nID                          : 1\r\nFormat                      : AVC\r\nFormat/Info                 : Advanced Video Codec\r\nFormat profile              :   \r\nFormat settings, CABAC      : Yes\r\nFormat settings, ReFrames   : 1 frame\r\nCodec ID                    : avc1\r\nCodec ID/Info               : Advanced Video Coding\r\nDuration                    : 1h 41mn\r\nBit rate                    : 3 177 Kbps\r\nWidth                       : 1 600 pixels\r\nHeight                      : 900 pixels\r\nDisplay aspect ratio        : 16:9\r\nFrame rate mode             : Variable\r\nFrame rate                  : 27.291 fps\r\nMinimum frame rate          : 4.287 fps\r\nMaximum frame rate          : 30.010 fps\r\nOriginal frame rate         : 25.000 fps\r\nColor space                 : YUV\r\nChroma subsampling          : 4:2:0\r\nBit depth                   : 8 bits\r\nScan type                   : Progressive\r\nBits/(Pixel*Frame)          : 0.081\r\nStream size                 : 2.25 GiB (96%)\r\n\r\nAudio\r\nID                          : 2\r\nFormat                      : AAC\r\nFormat/Info                 : Advanced Audio Codec\r\nFormat profile              : LC\r\nCodec ID                    : 40\r\nDuration                    : 1h 41mn\r\nBit rate mode               : Constant\r\nBit rate                    : 128 Kbps\r\nChannel(s)                  : 2 channels\r\nChannel positions           : Front: L R\r\nSampling rate               : 44.1 KHz\r\nFrame rate                  : 43.066 fps (1024 spf)\r\nCompression mode            : Lossy\r\nStream size                 : 92.7 MiB (4%)\r\nLanguage                    : unk\r\nDefault                     : Yes\r\nAlternate group             : 1","torrent":{"xt":"urn:btih:b24e8b5357fa67e619ae2c0fb5e3816e9355966c","amp;dn":"S%26atilde%3Bo+Paulo+em+Hi-Fi+%282013%29","amp;tr":["udp%3A%2F%2Ftracker.leechers-paradise.org%3A6969","udp%3A%2F%2Fzer0day.ch%3A1337","udp%3A%2F%2Fopen.demonii.com%3A1337","udp%3A%2F%2Ftracker.coppersurfer.tk%3A6969","udp%3A%2F%2Fexodus.desync.com%3A6969"],"infoHash":"b24e8b5357fa67e619ae2c0fb5e3816e9355966c","infoHashBuffer":{"type":"Buffer","data":[178,78,139,83,87,250,103,230,25,174,44,15,181,227,129,110,147,85,150,108]},"announce":[],"urlList":[]}}